<svg id="Capa_1" enable-background="new 0 0 235.067 235.067" height="512" viewBox="0 0 235.067 235.067" width="512" xmlns="http://www.w3.org/2000/svg"><path d="m184.136 156.712h-19.589v15.671h19.589c4.321 0 7.836-3.514 7.836-7.836s-3.515-7.835-7.836-7.835z"/><path d="m184.136 180.218h-19.589v15.671h19.589c4.321 0 7.836-3.514 7.836-7.836 0-4.32-3.515-7.835-7.836-7.835z"/><path d="m176.301 117.534c-25.528 0-47.245 16.388-55.339 39.178h-81.784v-15.672c0-1.626-1.003-3.083-2.527-3.663-1.52-.576-3.24-.157-4.321 1.062l-31.342 35.26c-1.316 1.485-1.316 3.718 0 5.203l31.342 35.26c.76.854 1.834 1.316 2.931 1.316.466 0 .94-.082 1.391-.255 1.52-.576 2.527-2.037 2.527-3.663v-15.67h81.784c8.094 22.79 29.81 39.178 55.339 39.178 32.404 0 58.767-26.363 58.767-58.767s-26.364-58.767-58.768-58.767zm-141.041 70.52c-2.163 0-3.918 1.751-3.918 3.918v9.285l-22.182-24.956 22.183-24.956v9.285c0 2.167 1.755 3.918 3.918 3.918h83.457c-.772 3.8-1.183 7.73-1.183 11.753s.411 7.953 1.183 11.753zm164.547 0c0 7.283-5.015 13.364-11.753 15.115v8.392c0 2.167-1.755 3.918-3.918 3.918s-3.918-1.751-3.918-3.918v-7.836h-7.836v7.836c0 2.167-1.755 3.918-3.918 3.918s-3.918-1.751-3.918-3.918v-7.836h-3.918-7.836c-2.163 0-3.918-1.751-3.918-3.918s1.755-3.918 3.918-3.918h3.918v-19.589-19.589h-3.918c-2.163 0-3.918-1.751-3.918-3.918s1.755-3.918 3.918-3.918h7.836 3.918v-7.836c0-2.167 1.755-3.918 3.918-3.918s3.918 1.751 3.918 3.918v7.836h7.836v-7.836c0-2.167 1.755-3.918 3.918-3.918s3.918 1.751 3.918 3.918v8.392c6.739 1.751 11.753 7.832 11.753 15.115 0 4.701-2.123 8.878-5.414 11.753 3.287 2.877 5.414 7.054 5.414 11.755z"/><path d="m60.22 55.127 10.022 4.008-11.475-22.95-11.475 22.95 10.018-4.008c.936-.372 1.974-.372 2.91 0z"/><path d="m71.891 68.236-13.124-5.25-13.125 5.25 13.125 15.754z"/><path d="m58.767 117.534c25.528 0 47.245-16.388 55.339-39.178h81.784v15.671c0 1.626 1.003 3.083 2.527 3.663.454.172.925.255 1.391.255 1.097 0 2.17-.462 2.931-1.316l31.342-35.26c1.316-1.485 1.316-3.718 0-5.203l-31.342-35.26c-1.081-1.218-2.805-1.638-4.321-1.062-1.52.576-2.527 2.037-2.527 3.663v15.671h-81.784c-8.096-22.79-29.812-39.178-55.34-39.178-32.404 0-58.767 26.363-58.767 58.767s26.363 58.767 58.767 58.767zm141.04-70.521c2.163 0 3.918-1.751 3.918-3.918v-9.285l22.183 24.956-22.183 24.956v-9.285c0-2.167-1.755-3.918-3.918-3.918h-83.457c.776-3.8 1.183-7.73 1.183-11.753s-.407-7.953-1.183-11.753zm-164.437 19.198c.027-.513.165-1.054.439-1.618.329-.686.678-1.367 1.019-2.049 1.309-2.617 2.617-5.238 3.926-7.855 1.759-3.518 3.518-7.04 5.281-10.558 1.708-3.416 3.416-6.833 5.124-10.245 1.152-2.304 2.304-4.611 3.455-6.915.215-.431.431-.862.646-1.293 1.328-2.656 5.681-2.656 7.009 0 .662 1.324 1.324 2.645 1.982 3.969 1.583 3.166 3.166 6.331 4.748 9.497 1.904 3.808 3.808 7.62 5.712 11.428 1.626 3.256 3.256 6.507 4.882 9.763.376.756.756 1.516 1.136 2.272.603 1.203 1.395 2.394 1.493 3.761.168 2.37-2.394 4.592-3.804 6.284-2.315 2.778-4.635 5.559-6.95 8.337-2.296 2.758-4.596 5.516-6.895 8.278-.932 1.12-1.869 2.241-2.801 3.361-.744.893-1.845 1.406-3.009 1.406s-2.264-.517-3.009-1.406c-1.128-1.352-2.253-2.703-3.381-4.055-2.413-2.899-4.831-5.798-7.244-8.694-2.261-2.711-4.521-5.426-6.782-8.137-1.406-1.704-3.099-3.42-2.977-5.531z"/></svg>