<?xml version="1.0" encoding="utf-8"?>
<!-- Generator: Adobe Illustrator 16.0.0, SVG Export Plug-In . SVG Version: 6.00 Build 0)  -->
<!DOCTYPE svg PUBLIC "-//W3C//DTD SVG 1.1//EN" "http://www.w3.org/Graphics/SVG/1.1/DTD/svg11.dtd">
<svg version="1.1" id="Capa_1" xmlns="http://www.w3.org/2000/svg" xmlns:xlink="http://www.w3.org/1999/xlink" x="0px" y="0px"
	 width="612px" height="612px" viewBox="0 0 612 612" enable-background="new 0 0 612 612" xml:space="preserve">
<g>
	<g>
		<path fill="#F38320" d="M373.701,369.845c55.303-22.46,91.146-76.569,90.258-136.252c0-82.03-70.87-148.764-157.98-148.764
			s-157.98,66.734-157.98,148.764c-0.888,59.683,34.953,113.792,90.258,136.252l1.225,0.663l8.364,13.724
			c-14.932,8.644-20.029,27.753-11.388,42.684c1.136,1.963,2.483,3.797,4.017,5.469c-11.709,12.836-10.797,32.732,2.038,44.442
			c5.831,5.318,13.448,8.252,21.339,8.218h84.255c17.374,0.076,31.52-13.947,31.597-31.321c0.034-7.893-2.899-15.51-8.218-21.339
			c11.663-12.714,10.81-32.474-1.904-44.136c-1.672-1.533-3.504-2.881-5.469-4.017l8.364-13.724L373.701,369.845z M348.105,463.979
			H263.85c-5.816,0-10.532-4.716-10.532-10.532c0-5.815,4.715-10.531,10.532-10.531h84.256c5.816,0,10.532,4.716,10.532,10.531
			C358.638,459.264,353.922,463.979,348.105,463.979z M348.105,421.852H263.85c-5.816,0-10.532-4.716-10.532-10.532
			c0-5.815,4.715-10.531,10.532-10.531h84.256c5.816,0,10.532,4.716,10.532,10.531C358.638,417.136,353.922,421.852,348.105,421.852
			z M364.141,351.064l-4.212,2.289c-1.63,0.889-2.997,2.19-3.965,3.773l-13.772,22.597h-4.618v-79.896l49.574-49.574l-14.893-14.894
			l-52.659,52.66c-1.975,1.975-3.085,4.652-3.086,7.446v84.256h-21.064v-84.256c-0.001-2.793-1.111-5.472-3.086-7.446l-52.66-52.66
			l-14.892,14.892l49.574,49.574v79.896h-4.618l-13.772-22.597c-0.968-1.583-2.335-2.886-3.965-3.774l-4.211-2.288
			c-0.338-0.181-0.685-0.343-1.039-0.488c-47.616-19.156-78.512-65.664-77.714-116.982c0-70.412,61.417-127.7,136.916-127.7
			c75.499,0,136.916,57.289,136.916,127.7c0.798,51.318-30.1,97.826-77.715,116.982
			C364.825,350.721,364.478,350.885,364.141,351.064z"/>
	</g>
</g>
<g>
	<g>
		
			<rect x="105.864" y="75.837" transform="matrix(-0.4472 0.8944 -0.8944 -0.4472 267.8749 56.7645)" fill="#F38320" width="21.064" height="70.646"/>
	</g>
</g>
<g>
	<g>
		
			<rect x="458.261" y="100.626" transform="matrix(-0.9486 0.3164 -0.3164 -0.9486 996.9804 60.4305)" fill="#F38320" width="70.646" height="21.063"/>
	</g>
</g>
<g>
	<g>
		<rect x="42.678" y="221.744" fill="#F38320" width="63.192" height="21.064"/>
	</g>
</g>
<g>
	<g>
		<rect x="506.085" y="221.744" fill="#F38320" width="63.192" height="21.064"/>
	</g>
</g>
<g>
	<g>
		
			<rect x="81.075" y="363.914" transform="matrix(-0.8944 0.4472 -0.4472 -0.8944 387.9631 657.3057)" fill="#F38320" width="70.646" height="21.064"/>
	</g>
</g>
<g>
	<g>
		
			<rect x="485.014" y="339.16" transform="matrix(-0.4472 0.8944 -0.8944 -0.4472 1052.1128 98.7394)" fill="#F38320" width="21.063" height="70.646"/>
	</g>
</g>
<g>
	<g>
		<rect x="295.446" y="11.104" fill="#F38320" width="21.064" height="52.66"/>
	</g>
</g>
<g>
	<g>
		<path fill="#F38320" d="M611.405,506.107v-21.063c-137.404,0-283.417,33.215-284.358,94.787h-42.139
			c-0.941-61.572-146.954-94.787-284.358-94.787v21.063c154.292,0,262.032,38.724,263.243,73.724H0.55v21.064h610.855v-21.064
			H348.162C349.373,544.831,457.113,506.107,611.405,506.107z"/>
	</g>
</g>
<g>
	<g>
		
			<rect x="90.089" y="453.31" transform="matrix(-0.0526 0.9986 -0.9986 -0.0526 658.6662 482.153)" fill="#F38320" width="21.063" height="200.42"/>
	</g>
</g>
<g>
	<g>
		
			<rect x="411.136" y="542.979" transform="matrix(-0.9986 0.0527 -0.0527 -0.9986 1051.1526 1079.3035)" fill="#F38320" width="200.421" height="21.064"/>
	</g>
</g>
</svg>
