<?xml version="1.0" encoding="utf-8"?>
<!-- Generator: Adobe Illustrator 16.0.0, SVG Export Plug-In . SVG Version: 6.00 Build 0)  -->
<!DOCTYPE svg PUBLIC "-//W3C//DTD SVG 1.1//EN" "http://www.w3.org/Graphics/SVG/1.1/DTD/svg11.dtd">
<svg version="1.1" id="Capa_1" xmlns="http://www.w3.org/2000/svg" xmlns:xlink="http://www.w3.org/1999/xlink" x="0px" y="0px"
	 width="612px" height="612px" viewBox="0 0 612 612" enable-background="new 0 0 612 612" xml:space="preserve">
<g>
	<g>
		<path fill="#F38320" d="M394.273,182.808c-2.223-2.224-5.295-3.502-8.45-3.502c-3.144,0-6.228,1.278-8.451,3.502
			c-2.222,2.223-3.502,5.307-3.502,8.451s1.278,6.228,3.502,8.45c2.224,2.223,5.308,3.503,8.451,3.503
			c3.155,0,6.228-1.279,8.45-3.503c2.223-2.222,3.503-5.306,3.503-8.45S396.497,185.031,394.273,182.808z"/>
	</g>
</g>
<g>
	<g>
		<path fill="#F38320" d="M580.965,246.71c-0.343-20.112-3.525-39.966-9.455-59.006c-1.556-4.997-6.181-8.398-11.411-8.398H431.482
			c-6.601,0-11.951,5.353-11.951,11.952c0,6.6,5.353,11.952,11.951,11.952h119.604c3.715,14.278,5.723,29.01,5.977,43.908
			c0.705,41.532-12.458,89.661-34.352,125.6c-21.123,34.673-30.434,75.948-26.213,116.223l10.386,99.137H351.365v-33.381
			c0-18.97-7.403-36.788-20.846-50.174c-13.368-13.311-31.093-20.629-49.945-20.629c-0.212,0.001-0.424,0.003-0.639,0.002
			c-19.099,0-37.035-7.444-50.533-20.978c-13.572-13.611-20.971-31.691-20.833-50.913l0.279-38.911
			c0.023-3.186-1.226-6.247-3.47-8.509c-2.245-2.26-5.298-3.53-8.483-3.53h-41.165c12.333-30.197,31.37-84.075,31.37-110.718
			c0-15.988,2.038-31.802,6.065-47.132h146.879c6.601,0,11.952-5.353,11.952-11.952c0-6.599-5.353-11.952-11.952-11.952H184.176
			c-5.221,0-9.839,3.39-11.402,8.372c-6.355,20.232-9.578,41.314-9.578,62.666c0,26.103-25.322,94.404-36.458,117.473
			c-1.788,3.706-1.545,8.067,0.641,11.55c2.187,3.484,6.01,5.6,10.125,5.6h47.356l-0.194,26.873
			c-0.183,25.658,9.691,49.794,27.812,67.963c18.017,18.067,41.958,28.004,67.457,28.004c0.213-0.001,0.423-0.004,0.637-0.003
			c12.485,0,24.228,4.849,33.082,13.664c8.905,8.865,13.809,20.668,13.809,33.233v45.333c0,6.601,5.353,11.952,11.951,11.952
			h180.744c3.387,0,6.614-1.437,8.882-3.954s3.36-5.876,3.006-9.245l-11.77-112.334c-3.677-35.094,4.439-71.068,22.853-101.295
			C567.608,344.965,581.754,293.209,580.965,246.71z"/>
	</g>
</g>
<g>
	<g>
		<path fill="#F38320" d="M480.173,0.019c-20.484,0-37.149,16.665-37.149,37.149c0,6.602,5.353,11.952,11.952,11.952
			c6.599,0,11.952-5.353,11.952-11.952c0-7.303,5.941-13.244,13.243-13.244c7.303,0,13.244,5.942,13.244,13.244
			c0,7.302-5.941,13.246-13.244,13.246c-6.6,0-11.951,5.353-11.951,11.952v7.575c0,6.601,5.353,11.952,11.951,11.952
			c5.747,0,10.544-4.056,11.691-9.459c14.772-4.911,25.458-18.863,25.458-35.266C517.321,16.684,500.656,0.019,480.173,0.019z"/>
	</g>
</g>
<g>
	<g>
		<path fill="#F38320" d="M488.626,97.61c-2.223-2.223-5.306-3.49-8.45-3.49s-6.229,1.268-8.45,3.49
			c-2.224,2.235-3.503,5.307-3.503,8.463c0,3.144,1.278,6.228,3.503,8.451c2.222,2.224,5.306,3.502,8.45,3.502
			s6.215-1.278,8.45-3.502c2.223-2.223,3.503-5.307,3.503-8.451C492.129,102.917,490.851,99.846,488.626,97.61z"/>
	</g>
</g>
<g>
	<g>
		<path fill="#F38320" d="M183.228,88.587c4.668-4.667,4.668-12.235,0-16.904L115.063,3.52c-4.668-4.667-12.234-4.667-16.904,0
			L62.951,38.729c-4.445,4.445-7.273,10.075-8.193,16.177c-6.103,0.919-11.733,3.747-16.177,8.193L3.501,98.178
			c-4.667,4.667-4.667,12.235,0,16.904l68.164,68.164c2.334,2.333,5.393,3.501,8.452,3.501c3.059,0,6.117-1.167,8.452-3.501
			l35.08-35.081c1.322-1.321,2.865-1.52,3.667-1.52c0.804,0.001,2.348,0.199,3.669,1.521c4.669,4.667,12.234,4.667,16.904,0
			c0.021-0.021,0.04-0.046,0.062-0.068c0.023-0.021,0.047-0.04,0.068-0.062c2.333-2.335,3.501-5.394,3.501-8.452
			c0-3.059-1.168-6.118-3.501-8.452c-1.322-1.322-1.52-2.865-1.52-3.668c0-0.802,0.197-2.345,1.52-3.667L183.228,88.587z
			 M106.744,131.262L80.116,157.89l-51.26-51.261L55.484,80c1.322-1.321,2.865-1.52,3.667-1.52c0.803,0,2.346,0.197,3.668,1.52
			l47.917,47.917C109.323,128.901,107.987,130.019,106.744,131.262z M131.115,106.892c-1.245,1.243-2.362,2.58-3.346,3.992
			L79.854,62.969c-1.322-1.322-1.519-2.865-1.519-3.668c-0.001-0.802,0.196-2.345,1.519-3.668l26.758-26.758l51.26,51.26
			L131.115,106.892z"/>
	</g>
</g>
<g>
	<g>
		<path fill="#F38320" d="M428.355,118.07h-9.617v-9.617c0-6.601-5.353-11.952-11.952-11.952c-6.601,0-11.952,5.353-11.952,11.952
			v9.617h-9.617c-6.601,0-11.952,5.353-11.952,11.952c0,6.6,5.353,11.952,11.952,11.952h9.617v9.617
			c0,6.601,5.354,11.952,11.952,11.952c6.601,0,11.952-5.353,11.952-11.952v-9.617h9.617c6.601,0,11.952-5.353,11.952-11.952
			C440.308,123.423,434.955,118.07,428.355,118.07z"/>
	</g>
</g>
<g>
	<g>
		<path fill="#F38320" d="M577.337,56.341c-19.111,0-34.661,15.55-34.661,34.662c0,19.112,15.55,34.662,34.661,34.662
			c19.112,0,34.662-15.55,34.662-34.662C612,71.891,596.449,56.341,577.337,56.341z M577.337,101.761
			c-5.933,0-10.757-4.826-10.757-10.758c0-5.933,4.826-10.757,10.757-10.757c5.933,0,10.758,4.826,10.758,10.757
			C588.095,96.934,583.269,101.761,577.337,101.761z"/>
	</g>
</g>
<g>
	<g>
		<path fill="#F38320" d="M367.927,0.936c-4.459-1.856-9.595-0.843-13.019,2.562l-20.81,20.696
			c-4.682,4.657-4.703,12.223-0.046,16.904c4.656,4.679,12.222,4.701,16.903,0.044l0.428-0.426v35.798
			c0,6.601,5.353,11.952,11.952,11.952s11.951-5.353,11.951-11.952V11.971C375.289,7.142,372.383,2.789,367.927,0.936z"/>
	</g>
</g>
<g>
	<g>
		<path fill="#F38320" d="M266.539,39.499c-33.64,0-61.007,27.368-61.007,61.008s27.369,61.006,61.007,61.006
			c33.64,0,61.008-27.367,61.008-61.006S300.179,39.499,266.539,39.499z M266.539,137.608c-20.458,0-37.103-16.644-37.103-37.101
			c0-20.458,16.645-37.103,37.103-37.103c20.458,0,37.103,16.645,37.103,37.103C303.642,120.964,286.997,137.608,266.539,137.608z"
			/>
	</g>
</g>
<g>
	<g>
		<path fill="#F38320" d="M278.491,89.365V78.749c0-6.601-5.353-11.952-11.952-11.952c-6.599,0-11.952,5.353-11.952,11.952v21.757
			c0,6.602,5.353,11.952,11.952,11.952h7.615c6.601,0,11.952-5.353,11.952-11.952C286.106,95.435,282.947,91.102,278.491,89.365z"/>
	</g>
</g>
<g>
	<g>
		<path fill="#F38320" d="M523.434,246.711c-0.112-6.533-5.441-11.749-11.947-11.749c-0.068,0-0.138,0-0.207,0.001
			c-6.601,0.113-11.859,5.555-11.747,12.154c0.454,26.651-6.358,56.772-19.698,87.11c-2.657,6.044,0.088,13.095,6.13,15.753
			c1.565,0.688,3.198,1.015,4.807,1.015c4.596,0,8.979-2.667,10.947-7.146C516.434,310.376,523.945,276.788,523.434,246.711z"/>
	</g>
</g>
<g>
	<g>
		<path fill="#F38320" d="M478.204,364.781c-5.646-3.422-12.994-1.619-16.417,4.027l-0.21,0.346
			c-3.421,5.646-1.618,12.994,4.027,16.415c1.936,1.174,4.072,1.732,6.183,1.732c4.043,0,7.986-2.05,10.233-5.759l0.21-0.346
			C485.652,375.552,483.85,368.203,478.204,364.781z"/>
	</g>
</g>
</svg>
