<?xml version="1.0" encoding="utf-8"?>
<!-- Generator: Adobe Illustrator 16.0.0, SVG Export Plug-In . SVG Version: 6.00 Build 0)  -->
<!DOCTYPE svg PUBLIC "-//W3C//DTD SVG 1.1//EN" "http://www.w3.org/Graphics/SVG/1.1/DTD/svg11.dtd">
<svg version="1.1" id="Layer_1" xmlns="http://www.w3.org/2000/svg" xmlns:xlink="http://www.w3.org/1999/xlink" x="0px" y="0px"
	 width="612px" height="612px" viewBox="0 0 612 612" enable-background="new 0 0 612 612" xml:space="preserve">
<g id="XMLID_496_">
	<path id="XMLID_497_" fill="#F38320" d="M10.81,295.076l141.017,52.632l54.582,175.536c3.493,11.242,17.24,15.397,26.365,7.938
		l78.605-64.081c8.239-6.714,19.976-7.048,28.586-0.798l141.776,102.933c9.761,7.095,23.59,1.746,26.038-10.049L611.639,59.609
		c2.673-12.885-9.987-23.633-22.256-18.888L10.645,263.98C-3.637,269.488-3.513,289.708,10.81,295.076z M197.613,319.69
		l275.6-169.742c4.953-3.042,10.049,3.656,5.796,7.601l-227.45,211.425c-7.995,7.441-13.152,17.401-14.613,28.211l-7.748,57.418
		c-1.026,7.667-11.795,8.428-13.911,1.008l-29.798-104.703C182.076,338.967,187.05,326.211,197.613,319.69z"/>
</g>
</svg>
