<?xml version="1.0" encoding="utf-8"?>
<!-- Generator: Adobe Illustrator 16.0.0, SVG Export Plug-In . SVG Version: 6.00 Build 0)  -->
<!DOCTYPE svg PUBLIC "-//W3C//DTD SVG 1.1//EN" "http://www.w3.org/Graphics/SVG/1.1/DTD/svg11.dtd">
<svg version="1.1" id="Capa_1" xmlns="http://www.w3.org/2000/svg" xmlns:xlink="http://www.w3.org/1999/xlink" x="0px" y="0px"
	 width="612px" height="612px" viewBox="0 0 612 612" enable-background="new 0 0 612 612" xml:space="preserve">
<g transform="translate(0 -1)">
	<g>
		<g>
			<path fill="#F38320" d="M571.345,149.684c-10.315-35.054-31.71-65.824-60.979-87.7C452.821,16.847,399.023-1.864,336.091,1.353
				c-33.186,2.292-66.161,7.002-98.662,14.095c-46.019,9.264-79.437,25.44-102.188,49.456
				c-18.041,19.211-31.966,41.906-40.92,66.692c-3.782,10.861-6.862,21.954-9.224,33.208l-0.857,3.691
				c-2.143,7.931-5.038,15.639-8.646,23.019c-2.122,4.731-4.233,9.468-6.046,14.284c-2.356,5.396-3.301,11.304-2.749,17.167
				c2.07,9.117,7.352,17.184,14.881,22.725c5,4.582,8.287,7.799,8.317,10.728c-0.396,1.525-0.996,2.989-1.784,4.353
				c-12.216,25.749-27.185,50.099-44.644,72.625c-7.321,8.939-15.001,19.368-13.447,29.986c2.222,8.043,7.537,14.881,14.782,19.02
				c3.372,2.345,6.929,4.408,10.638,6.172c4.402,2.241,11.774,6.002,12.282,8.687c0.672,3.444,0.282,7.012-1.116,10.229
				c-1.515,3.192-3.088,5.951-4.443,8.347c-3.745,6.624-10.02,17.71-0.558,25.644c2.202,1.947,5.967,4.907,9.413,7.54
				c-2.552,4.482-3.697,9.629-3.287,14.771c0.551,3.991,2.724,7.578,6.006,9.916c2.281,1.618,4.722,3.027,7.142,4.413
				c5.997,3.417,8.337,5.011,9.144,8.192c0.535,4.154,0.159,8.374-1.106,12.367c-0.588,2.674-1.165,5.349-1.524,8.018
				c-1.024,9.276,0.146,18.666,3.417,27.407c5.293,19.367,24.812,31.211,44.435,26.963c29.126-7.023,57.851-15.613,86.051-25.733
				c22.929,13.542,37.413,54.526,41.188,69.896c1.126,4.559,5.215,7.765,9.911,7.77h257.885c3.233-0.002,6.275-1.535,8.198-4.135
				c1.924-2.6,2.5-5.957,1.554-9.049c-2.724-7.188-6.603-13.885-11.485-19.821c-2.765-3.525-5.224-7.279-7.351-11.222
				c-4.596-9.41-8.448-19.165-11.525-29.175c-5.832-19.698-9.855-39.888-12.022-60.316c-3.606-30.502,0.998-61.412,13.337-89.538
				c7.551-15.566,16.84-30.228,27.691-43.703c6.166-8.293,12.53-16.868,18.269-25.913c16.101-25.011,24.758-54.084,24.961-83.83
				C582.622,207.064,579.03,177.896,571.345,149.684z M561.612,236.008c-0.172,25.978-7.734,51.369-21.805,73.207
				c-5.328,8.397-11.464,16.666-17.401,24.664c-11.778,14.712-21.848,30.716-30.011,47.702
				c-13.797,31.461-18.938,66.036-14.893,100.151c2.308,21.641,6.586,43.024,12.78,63.889c3.381,10.993,7.61,21.707,12.649,32.044
				c2.649,5.058,5.746,9.868,9.254,14.373c0.14,0.185,0.278,0.374,0.408,0.563H280.221c-6.793-24.209-19.101-46.515-35.958-65.169
				c2.669-0.932,5.2-1.818,7.551-2.646c7.639-2.674,13.397-4.696,16.295-5.608c43.728-13.726,65.602-33.598,65.004-59.067
				c-0.132-5.634-4.807-10.094-10.438-9.961s-10.093,4.807-9.961,10.438c0.249,10.509-8.346,25.828-50.73,39.132
				c-3.008,0.951-8.995,3.038-16.913,5.817c-7.312,2.561-16.316,5.712-26.167,9.079l-0.06,0.021
				c-28.711,10.39-57.962,19.222-87.625,26.456c-9.554,1.854-18.857-4.197-21.037-13.682c-2.208-5.729-3.051-11.894-2.46-18.005
				c0.278-2.11,0.756-4.223,1.225-6.335c2.092-7.076,2.417-14.558,0.947-21.789c-2.923-9.367-9.787-16.993-18.796-20.883
				c-0.727-0.414-1.464-0.832-2.181-1.255c1.089-2.23,2.396-4.349,3.905-6.32c1.701-2.167,2.452-4.929,2.083-7.659
				c-0.37-2.729-1.829-5.193-4.044-6.83c-2.45-1.809-8.277-6.176-12.47-9.522c0.518-0.951,1.105-1.993,1.644-2.934
				c1.563-2.77,3.356-5.961,5.1-9.622c3.264-7.135,4.222-15.111,2.74-22.816c-2.381-12.504-14.334-18.596-23.06-23.049
				c-2.958-1.398-5.792-3.041-8.477-4.91c-2.12-1.471-4.127-3.098-6.006-4.865c0.03-1.533,1.623-5.265,9.473-14.842
				c18.229-23.499,33.855-48.905,46.607-75.773c2.455-4.208,3.827-8.961,3.995-13.831c-1.038-10.276-6.49-19.592-14.941-25.529
				c-4.124-3.774-8.018-7.341-8.457-10.468c0.038-2.478,0.595-4.921,1.634-7.172c1.674-4.448,3.636-8.8,5.579-13.158
				c4.16-8.564,7.473-17.516,9.891-26.726l0.867-3.72c2.169-10.416,5.003-20.681,8.486-30.735
				c8.002-22.194,20.452-42.521,36.586-59.735c19.762-20.858,49.665-35.082,91.41-43.483c31.52-6.888,63.499-11.475,95.684-13.726
				c57.732-2.903,107.258,14.428,160.658,56.323c25.946,19.139,44.892,46.267,53.929,77.216
				C558.865,181.565,562.197,208.758,561.612,236.008z"/>
			<path fill="#F38320" d="M518.094,165.964h-21.146c-2.35-7.981-5.546-15.688-9.533-22.989l14.962-14.961
				c3.496-3.495,3.983-8.993,1.155-13.049c-9.806-14.07-22.027-26.291-36.098-36.098c-4.051-2.837-9.557-2.352-13.049,1.15
				l-14.962,14.961c-7.304-3.988-15.015-7.185-23-9.532V64.294c-0.002-4.94-3.544-9.169-8.406-10.041
				c-16.89-2.979-34.17-2.979-51.06,0c-4.863,0.872-8.404,5.101-8.406,10.041v21.152c-7.984,2.348-15.695,5.544-23,9.533
				L310.59,80.018c-3.493-3.502-8.998-3.988-13.049-1.15c-14.07,9.806-26.292,22.028-36.098,36.098
				c-2.828,4.055-2.342,9.554,1.156,13.049l14.961,14.961c-3.987,7.301-7.184,15.008-9.532,22.989h-21.146
				c-4.941-0.001-9.173,3.542-10.041,8.406c-3.001,16.891-3.001,34.178,0,51.069c0.868,4.865,5.099,8.408,10.041,8.406h21.147
				c2.349,7.981,5.545,15.688,9.533,22.989L262.6,271.798c-3.497,3.495-3.984,8.994-1.156,13.049
				c9.807,14.07,22.028,26.292,36.098,36.098c4.056,2.822,9.55,2.339,13.049-1.15l14.961-14.961c7.305,3.989,15.016,7.185,23,9.533
				v21.151c0.003,4.94,3.544,9.17,8.407,10.041c16.888,2.995,34.171,2.995,51.059,0c4.864-0.871,8.404-5.101,8.407-10.041v-21.151
				c7.984-2.348,15.695-5.544,23-9.533l14.961,14.961c3.497,3.49,8.993,3.976,13.049,1.15c14.07-9.807,26.292-22.028,36.099-36.098
				c2.828-4.055,2.341-9.554-1.156-13.049l-14.962-14.961c3.988-7.302,7.185-15.008,9.533-22.989h21.146
				c4.941,0.001,9.173-3.542,10.041-8.406c3.001-16.891,3.001-34.178,0-51.069C527.267,169.507,523.035,165.964,518.094,165.964z
				 M509.26,213.448h-20.223c-4.789-0.001-8.934,3.332-9.96,8.009c-2.445,11.186-6.864,21.845-13.049,31.481
				c-2.6,4.033-2.032,9.335,1.365,12.725l14.313,14.314c-5.671,7.056-12.091,13.475-19.146,19.145l-14.313-14.309
				c-3.39-3.391-8.684-3.963-12.721-1.375c-9.639,6.191-20.304,10.613-31.496,13.059c-4.677,1.029-8.008,5.172-8.008,9.96v20.221
				c-8.998,0.966-18.075,0.966-27.074,0v-20.221c0-4.789-3.331-8.933-8.008-9.96c-11.191-2.446-21.857-6.867-31.496-13.059
				c-4.033-2.6-9.336-2.026-12.721,1.375l-14.313,14.309c-7.056-5.67-13.475-12.091-19.145-19.145l14.313-14.314
				c3.396-3.39,3.965-8.691,1.365-12.725c-6.185-9.635-10.604-20.296-13.049-31.481c-1.026-4.677-5.172-8.01-9.96-8.009h-20.22
				c-0.97-9.002-0.97-18.081,0-27.083l0,0h20.221c4.79,0.001,8.934-3.331,9.96-8.008c2.445-11.186,6.865-21.845,13.049-31.482
				c2.6-4.033,2.032-9.334-1.365-12.725l-14.314-14.313c5.67-7.056,12.09-13.475,19.145-19.145L316.726,115
				c3.386,3.399,8.687,3.973,12.721,1.375c9.639-6.192,20.305-10.613,31.496-13.059c4.677-1.029,8.009-5.172,8.009-9.961V73.135
				c8.998-0.966,18.075-0.966,27.073,0v20.221c0,4.789,3.331,8.933,8.009,9.961c11.191,2.445,21.856,6.867,31.496,13.059
				c4.036,2.587,9.329,2.015,12.72-1.375l14.313-14.309c7.057,5.67,13.475,12.09,19.146,19.145l-14.313,14.313
				c-3.396,3.39-3.965,8.691-1.365,12.725c6.185,9.635,10.604,20.296,13.049,31.482c1.027,4.677,5.172,8.01,9.961,8.008h20.221
				C510.229,195.366,510.229,204.446,509.26,213.448z"/>
			<path fill="#F38320" d="M244.79,296.805H233.14c-0.95-3.651-2.409-7.151-4.333-10.396l8.252-8.255
				c3.983-3.983,3.983-10.44,0-14.424c-3.983-3.982-10.44-3.982-14.424,0l-8.253,8.255c-3.245-1.922-6.744-3.38-10.393-4.332
				v-11.648c0-5.633-4.567-10.199-10.2-10.199c-5.632,0-10.199,4.567-10.199,10.199v11.648c-3.65,0.951-7.149,2.41-10.393,4.332
				l-8.252-8.255c-2.576-2.577-6.332-3.582-9.852-2.639c-3.52,0.943-6.268,3.692-7.211,7.211c-0.943,3.519,0.063,7.274,2.639,9.852
				l8.252,8.255c-1.924,3.245-3.383,6.745-4.333,10.396h-11.649c-5.633,0-10.199,4.566-10.199,10.2
				c0,5.633,4.566,10.199,10.199,10.199h11.649c0.95,3.652,2.409,7.152,4.333,10.396l-8.252,8.256
				c-2.576,2.576-3.583,6.331-2.64,9.852c0.943,3.519,3.692,6.268,7.211,7.211s7.274-0.063,9.852-2.639l8.252-8.256
				c3.245,1.922,6.744,3.381,10.394,4.332v11.648c0,5.633,4.566,10.199,10.2,10.199s10.199-4.566,10.199-10.199v-11.648
				c3.651-0.951,7.149-2.41,10.394-4.332l8.252,8.256c3.983,3.982,10.44,3.982,14.424,0c3.983-3.983,3.983-10.441,0-14.424
				l-8.252-8.256c1.924-3.244,3.383-6.744,4.333-10.396h11.649c5.633,0,10.199-4.565,10.199-10.199
				C254.989,301.371,250.423,296.805,244.79,296.805z M193.79,327.404c-11.267,0-20.4-9.133-20.4-20.4s9.133-20.4,20.4-20.4
				c11.267,0,20.4,9.133,20.4,20.4C214.177,318.266,205.051,327.391,193.79,327.404z"/>
			<path fill="#F38320" d="M140.396,194.807c0.628,2.046,1.45,4.029,2.452,5.921l-5.517,5.519c-2.576,2.577-3.582,6.332-2.639,9.852
				c0.943,3.519,3.692,6.268,7.211,7.211c3.519,0.943,7.274-0.063,9.852-2.639l5.532-5.534c1.887,0.997,3.863,1.815,5.902,2.445
				v7.826c0,5.633,4.566,10.2,10.2,10.2c5.633,0,10.199-4.566,10.199-10.2v-7.826c2.039-0.628,4.015-1.447,5.902-2.445l5.533,5.535
				c3.982,3.983,10.441,3.983,14.423,0c3.983-3.982,3.983-10.441,0-14.423l-5.517-5.52c1.002-1.892,1.824-3.874,2.453-5.92h7.805
				c5.633,0,10.2-4.567,10.2-10.199c0-5.634-4.566-10.2-10.2-10.2h-7.805c-0.629-2.046-1.45-4.028-2.453-5.92l5.517-5.52
				c2.577-2.577,3.583-6.332,2.639-9.852c-0.943-3.519-3.692-6.269-7.211-7.211s-7.274,0.063-9.852,2.639l-5.533,5.536
				c-1.887-0.997-3.863-1.814-5.902-2.443v-7.828c0-5.633-4.566-10.199-10.199-10.199c-5.634,0-10.2,4.566-10.2,10.199v7.829
				c-2.039,0.629-4.015,1.447-5.902,2.443l-5.533-5.537c-3.982-3.982-10.439-3.982-14.423,0c-3.983,3.983-3.983,10.44,0,14.424
				l5.518,5.52c-1.003,1.893-1.824,3.874-2.453,5.92h-7.805c-5.633,0-10.199,4.567-10.199,10.2c0,5.633,4.567,10.199,10.199,10.199
				L140.396,194.807L140.396,194.807z M169.69,170.805c6.244-1.674,12.836,1.055,16.069,6.653s2.303,12.671-2.269,17.243
				c-4.083,4.087-10.228,5.311-15.566,3.101c-5.338-2.21-8.819-7.419-8.819-13.196C159.104,178.141,163.446,172.479,169.69,170.805z
				"/>
			<path fill="#F38320" d="M382.487,133.607c-36.615,0-66.299,29.683-66.299,66.299c0.041,36.599,29.7,66.256,66.299,66.3
				c36.616,0,66.3-29.683,66.3-66.3S419.104,133.607,382.487,133.607z M382.487,245.805c-25.35,0-45.899-20.55-45.899-45.899
				c0.027-25.338,20.562-45.872,45.899-45.899c25.351,0,45.899,20.549,45.899,45.899
				C428.387,225.255,407.838,245.805,382.487,245.805z"/>
		</g>
	</g>
</g>
</svg>
