<?xml version="1.0" encoding="utf-8"?>
<!-- Generator: Adobe Illustrator 16.0.0, SVG Export Plug-In . SVG Version: 6.00 Build 0)  -->
<!DOCTYPE svg PUBLIC "-//W3C//DTD SVG 1.1//EN" "http://www.w3.org/Graphics/SVG/1.1/DTD/svg11.dtd">
<svg version="1.1" id="Capa_1" xmlns="http://www.w3.org/2000/svg" xmlns:xlink="http://www.w3.org/1999/xlink" x="0px" y="0px"
	 width="612px" height="612px" viewBox="0 0 612 612" enable-background="new 0 0 612 612" xml:space="preserve">
<g>
	<g>
		<path fill="#F38320" d="M612,116.242c-22.759,9.983-47.01,16.601-72.293,19.813c26.011-15.529,45.862-39.933,55.195-69.347
			c-24.251,14.458-51.025,24.671-79.561,30.371c-23.026-24.519-55.845-39.704-91.646-39.704
			c-69.462,0-125.384,56.38-125.384,125.498c0,9.945,0.842,19.508,2.907,28.611c-104.308-5.087-196.605-55.08-258.608-131.236
			c-10.825,18.781-17.174,40.277-17.174,63.418c0,43.452,22.376,81.97,55.73,104.27c-20.158-0.382-39.933-6.235-56.687-15.453
			c0,0.383,0,0.88,0,1.377c0,60.971,43.49,111.614,100.521,123.28c-10.213,2.792-21.343,4.131-32.895,4.131
			c-8.033,0-16.142-0.459-23.753-2.143c16.256,49.688,62.386,86.216,117.236,87.401c-42.687,33.393-96.887,53.512-155.563,53.512
			c-10.29,0-20.158-0.459-30.026-1.721c55.577,35.84,121.444,56.304,192.474,56.304c230.876,0,357.102-191.25,357.102-357.025
			c0-5.546-0.191-10.901-0.459-16.218C574.018,163.71,594.94,141.64,612,116.242z"/>
	</g>
</g>
</svg>
