<?xml version="1.0" encoding="UTF-8"?>
<svg enable-background="new 0 0 63 29" version="1.1" viewBox="0 0 63 29" xml:space="preserve" xmlns="http://www.w3.org/2000/svg">
<style type="text/css">
	.st0{fill:none;stroke:#000000;stroke-width:0.75;stroke-miterlimit:10;}
	.st1{fill:#F38320;}
	.st2{fill:#8FC641;}
	.st3{fill:#FFFFFF;}
	.st4{fill:none;stroke:#3D3C3C;stroke-width:0.5;stroke-miterlimit:10;}
</style>
	<path class="st0" d="m42.7 15.2"/>
	<circle class="st1" cx="48.8" cy="14.3" r="11.1"/>
	<circle class="st2" cx="13.8" cy="14.2" r="11.1"/>
		<path class="st3" d="m18.9 17.2c0 2.1-1.5 3.8-4.1 4.3v2.4h-2.3v-2.2c-1.6-0.1-3.1-0.5-3.9-1l0.7-2.7c1 0.5 2.4 1 3.8 1 1.3 0 2.3-0.5 2.3-1.4s-0.8-1.5-2.4-2c-2.4-0.9-4.2-2-4.2-4.3 0-2 1.5-3.7 3.9-4.1v-2.2h2.3v2c1.6 0.1 2.6 0.4 3.4 0.8l-0.7 2.6c-0.6-0.3-1.7-0.8-3.3-0.8-1.5 0-2 0.6-2 1.3 0 0.8 0.8 1.2 2.8 2 2.6 0.9 3.7 2.2 3.7 4.3z"/>
		<path class="st3" d="m55.2 15.7c-0.3-0.4-0.7-0.9-1.1-1.1-0.3-0.2-0.8-0.3-1.5-0.5 0.6-0.2 1.1-0.4 1.5-0.8 0.4-0.3 0.6-0.7 0.8-1.1s0.3-0.8 0.3-1.3-0.2-1.2-0.5-1.6c-0.4-0.5-0.8-0.9-1.4-1.1-0.3-0.1-0.7-0.3-1.1-0.3v-2.4h-2.5v2.2h-1.6v-2.2h-2.4v2.2h-3.7v1.8h0.5c0.4 0 0.6 0 0.7 0.1 0.2 0.1 0.2 0.1 0.3 0.2s0.1 0.3 0.1 0.8v7.4c0 0.4 0 0.6-0.1 0.8-0.2 0.2-0.2 0.2-0.4 0.3-0.1 0.1-0.4 0.1-0.7 0.1h-0.5v1.8h3.7v2.2h2.4v-2.2h1.6v2.2h2.4v-2.5c0.5-0.1 0.7-0.1 1-0.2 0.8-0.3 1.5-0.8 1.9-1.4 0.4-0.5 0.6-1.2 0.6-2 0.1-0.4 0-0.8-0.3-1.4zm-8-5.7h1.6c0.9 0 1.6 0.1 1.9 0.1 0.3 0.1 0.6 0.3 0.8 0.5s0.3 0.5 0.3 0.9c0 0.3-0.1 0.7-0.3 0.9s-0.5 0.4-0.8 0.5c-0.4 0.1-0.9 0.2-1.8 0.2h-1.6l-0.1-3.1zm4.3 8.2c-0.3 0.3-0.6 0.5-1 0.7-0.4 0.1-0.8 0.1-1.5 0.1h-1c-0.3 0-0.4 0-0.6-0.1l-0.2-0.2v-0.8-2.9h1.8c0.8 0 1.4 0.1 1.8 0.2s0.7 0.4 0.8 0.7c0.2 0.3 0.3 0.5 0.3 1 0 0.6-0.1 1-0.4 1.3z"/>
	<polygon class="st2" points="24.8 1.8 25.3 6.8 20.7 4.6 23.3 4.2"/>
	<polygon class="st1" points="39.6 27.7 38.2 22.9 43.1 24.2 40.6 25.1"/>
		<path class="st2" d="m14.6 27.4c-7.2 0-13-5.8-13-13s6-12.8 13.2-12.8c3.9 0 7.7 1.5 10.1 4.3-2.5-3.2-6.5-5.3-10.9-5.3-7.7 0-13.9 6.2-13.9 13.9s6.2 13.9 13.9 13.9c4.4 0 8.4-2.1 10.9-5.3-2.4 2.7-6.3 4.3-10.3 4.3z"/>
		<path class="st1" d="m48.4 27.1c7.2 0 13-5.8 13-13s-6-12.7-13.2-12.7c-3.9 0-7.1 1.1-9.5 3.9 2.5-3.2 5.9-4.9 10.3-4.9 7.7 0 13.9 6.2 13.9 13.9s-6.2 13.9-13.9 13.9c-4.4 0-8.4-2.1-10.9-5.3 2.4 2.6 6.3 4.2 10.3 4.2z"/>
	<path d="m32.3 23.2c-0.4 0.2-1.1 0.3-2 0.3-2.1 0-3.2-1.1-3.2-3.3v-7.5h-1.6v-2.2h1.6v-2.1l3-0.9v2.9h2.2v2.3h-2.2v7c0 1 0.4 1.5 1.2 1.5 0.3 0 0.6-0.1 1-0.3v2.3z"/>
	<path d="M36.9,23.3h-3V10.5h3V23.3z"/>
		<polygon class="st4" points="38.4 5.4 36.1 4.2 33.9 5.7 34 8.2 36.4 9.4 38.5 8.1"/>
		<polyline class="st4" points="36.1 4.2 36.1 6.8 38.5 8.1"/>
		<line class="st4" x1="34" x2="36.1" y1="8.2" y2="6.8"/>
</svg>
